<?xml version="1.0" encoding="utf-8"?>
<!-- Generator: Adobe Illustrator 16.0.0, SVG Export Plug-In . SVG Version: 6.00 Build 0)  -->
<!DOCTYPE svg PUBLIC "-//W3C//DTD SVG 1.1//EN" "http://www.w3.org/Graphics/SVG/1.1/DTD/svg11.dtd">
<svg version="1.1" id="Layer_1" xmlns="http://www.w3.org/2000/svg" xmlns:xlink="http://www.w3.org/1999/xlink" x="0px" y="0px"
	 width="16px" height="16px" viewBox="0 0 16 16" enable-background="new 0 0 16 16" xml:space="preserve">
<path fill="#D23627" d="M7,14c0,0-1,0-1-1s1-4,5-4s5,3,5,4s-1,1-1,1H7z M11,8c1.656,0,3-1.343,3-3s-1.344-3-3-3S8,3.343,8,5
	S9.344,8,11,8 M5.216,14C5.068,13.688,4.994,13.346,5,13c0-1.355,0.68-2.75,1.936-3.72C6.309,9.086,5.656,8.992,5,9c-4,0-5,3-5,4
	s1,1,1,1H5.216z M4.5,8C5.881,8,7,6.881,7,5.5S5.881,3,4.5,3S2,4.119,2,5.5S3.119,8,4.5,8"/>
</svg>
